<?xml version="1.0" encoding="UTF-8" standalone="no"?>
<!-- Created with Inkscape (http://www.inkscape.org/) -->

<svg
   xmlns:dc="http://purl.org/dc/elements/1.1/"
   xmlns:cc="http://creativecommons.org/ns#"
   xmlns:rdf="http://www.w3.org/1999/02/22-rdf-syntax-ns#"
   xmlns:svg="http://www.w3.org/2000/svg"
   xmlns="http://www.w3.org/2000/svg"
   xmlns:sodipodi="http://sodipodi.sourceforge.net/DTD/sodipodi-0.dtd"
   xmlns:inkscape="http://www.inkscape.org/namespaces/inkscape"
   width="600"
   height="121.757"
   viewBox="0 0 600.00006 121.75702"
   id="svg2"
   version="1.1"
   inkscape:version="0.92.1 unknown"
   sodipodi:docname="smashing-home-text.svg">
  <defs
     id="defs4" />
  <sodipodi:namedview
     id="base"
     pagecolor="#ffffff"
     bordercolor="#666666"
     borderopacity="1"
     inkscape:pageopacity="1"
     inkscape:pageshadow="2"
     inkscape:zoom="1.28"
     inkscape:cx="247.13507"
     inkscape:cy="89.168404"
     inkscape:document-units="px"
     inkscape:current-layer="flowRoot4136"
     showgrid="false"
     units="px"
     inkscape:showpageshadow="false"
     inkscape:window-width="1366"
     inkscape:window-height="688"
     inkscape:window-x="0"
     inkscape:window-y="0"
     inkscape:window-maximized="1"
     borderlayer="false"
     showborder="true"
     showguides="true">
    <inkscape:grid
       type="axonomgrid"
       id="grid4145"
       empspacing="5"
       color="#3f3fff"
       opacity="0.58431373"
       empcolor="#3f3fff"
       empopacity="0.14117647" />
  </sodipodi:namedview>
  <metadata
     id="metadata7">
    <rdf:RDF>
      <cc:Work
         rdf:about="">
        <dc:format>image/svg+xml</dc:format>
        <dc:type
           rdf:resource="http://purl.org/dc/dcmitype/StillImage" />
        <dc:title></dc:title>
        <dc:creator>
          <cc:Agent>
            <dc:title>Daniel Vinciguerra</dc:title>
          </cc:Agent>
        </dc:creator>
        <dc:subject>
          <rdf:Bag>
            <rdf:li>SVG</rdf:li>
            <rdf:li>web</rdf:li>
            <rdf:li>templates</rdf:li>
          </rdf:Bag>
        </dc:subject>
      </cc:Work>
    </rdf:RDF>
  </metadata>
  <g
     inkscape:label="Layer 1"
     inkscape:groupmode="layer"
     id="layer1"
     transform="translate(0,-930.60442)">
    <g
       aria-label="Smashing"
       transform="matrix(1.4431342,0,0,1.4431342,-98.49603,107.4289)"
       style="font-style:normal;font-weight:normal;font-size:87.17928314px;line-height:125%;font-family:sans-serif;letter-spacing:0px;word-spacing:0px;fill:none;fill-opacity:1;stroke:#000000;stroke-width:1.73234117;stroke-linecap:butt;stroke-linejoin:miter;stroke-miterlimit:4;stroke-dasharray:none;stroke-opacity:0.98770495"
       id="flowRoot4136">
      <path
         id="path5969"
         style="fill:none;fill-opacity:1;stroke:#fffff9;stroke-width:1.73234117;stroke-opacity:0.98770493"
         d="m 476.18071,612.25254 q 0,-8.51361 -3.53315,-13.19609 -3.49058,-4.68248 -9.83321,-4.68248 -6.30006,0 -9.83321,4.68248 -3.49058,4.68248 -3.49058,13.19609 0,8.47103 3.49058,13.15351 3.53315,4.68248 9.83321,4.68248 6.34263,0 9.83321,-4.68248 3.53315,-4.68248 3.53315,-13.15351 z m 7.83251,18.47451 q 0,12.17445 -5.40614,18.09141 -5.40613,5.95952 -16.55895,5.95952 -4.1291,0 -7.78995,-0.63852 -3.66085,-0.59596 -7.10886,-1.873 v -7.61967 q 3.44801,1.87299 6.81089,2.76692 3.36287,0.89393 6.85344,0.89393 7.70481,0 11.53594,-4.04396 3.83112,-4.00139 3.83112,-12.13188 v -3.87369 q -2.42638,4.21423 -6.21493,6.30006 -3.78856,2.08583 -9.06699,2.08583 -8.76901,0 -14.13258,-6.68317 -5.36357,-6.68318 -5.36357,-17.70829 0,-11.06769 5.36357,-17.75086 5.36357,-6.68318 14.13258,-6.68318 5.27843,0 9.06699,2.08583 3.78855,2.08583 6.21493,6.30007 v -7.23657 h 7.83251 z M 429.10049,607.86803 V 636.644 h -7.83251 v -28.52056 q 0,-6.76831 -2.63922,-10.13119 -2.63922,-3.36287 -7.91765,-3.36287 -6.34263,0 -10.00348,4.04396 -3.66085,4.04396 -3.66085,11.02512 V 636.644 h -7.87508 v -47.67617 h 7.87508 v 7.40684 q 2.80949,-4.29937 6.59804,-6.42777 3.83112,-2.1284 8.81158,-2.1284 8.21562,0 12.42986,5.10816 4.21423,5.06559 4.21423,14.94137 z m -63.80947,-18.9002 h 7.83252 V 636.644 h -7.83252 z m 0,-18.55965 h 7.83252 v 9.91835 h -7.83252 z m -15.70759,37.45985 V 636.644 h -7.83251 v -28.52056 q 0,-6.76831 -2.63922,-10.13119 -2.63922,-3.36287 -7.91765,-3.36287 -6.34263,0 -10.00348,4.04396 -3.66085,4.04396 -3.66085,11.02512 V 636.644 h -7.87508 v -66.23582 h 7.87508 v 25.96649 q 2.80949,-4.29937 6.59804,-6.42777 3.83112,-2.1284 8.81158,-2.1284 8.21563,0 12.42986,5.10816 4.21423,5.06559 4.21423,14.94137 z m -54.69989,-17.49545 v 7.40683 q -3.3203,-1.70272 -6.89602,-2.55408 -3.57571,-0.85136 -7.40683,-0.85136 -5.83182,0 -8.76901,1.78786 -2.89462,1.78785 -2.89462,5.36357 0,2.72435 2.08583,4.29937 2.08583,1.53245 8.3859,2.93719 l 2.68178,0.59595 q 8.34333,1.78786 11.83391,5.06559 3.53314,3.23517 3.53314,9.06699 0,6.64061 -5.27843,10.5143 -5.23587,3.87369 -14.43056,3.87369 -3.83112,0 -8.00278,-0.76623 -4.1291,-0.72365 -8.72644,-2.21353 v -8.08793 q 4.34193,2.25611 8.55617,3.40545 4.21423,1.10676 8.34333,1.10676 5.53384,0 8.5136,-1.87299 2.97976,-1.91556 2.97976,-5.36357 0,-3.1926 -2.17097,-4.89532 -2.1284,-1.70272 -9.40753,-3.27774 l -2.72435,-0.63852 q -7.27913,-1.53244 -10.5143,-4.68248 -3.23517,-3.1926 -3.23517,-8.72644 0,-6.72574 4.76762,-10.38659 4.76761,-3.66085 13.53662,-3.66085 4.34194,0 8.17306,0.63852 3.83112,0.63852 7.06629,1.91556 z m -62.19186,22.30564 q -9.49267,0 -13.15352,2.17096 -3.66085,2.17097 -3.66085,7.40684 0,4.17166 2.72436,6.64061 2.76692,2.42637 7.49197,2.42637 6.5129,0 10.42916,-4.59734 3.95882,-4.63991 3.95882,-12.30216 v -1.74528 z m 15.62246,-3.23517 V 636.644 h -7.83252 v -7.23656 q -2.68178,4.34194 -6.68318,6.42777 -4.00139,2.04327 -9.79064,2.04327 -7.32169,0 -11.66363,-4.08653 -4.29937,-4.1291 -4.29937,-11.02512 0,-8.04535 5.36357,-12.13188 5.40614,-4.08653 16.09071,-4.08653 h 10.98254 v -0.76622 q 0,-5.40614 -3.57571,-8.34333 -3.53315,-2.97976 -9.96091,-2.97976 -4.08653,0 -7.96022,0.97906 -3.87369,0.97907 -7.4494,2.9372 v -7.23657 q 4.29936,-1.66015 8.34333,-2.46894 4.04396,-0.85136 7.87508,-0.85136 10.34402,0 15.45218,5.36357 5.10817,5.36357 5.10817,16.26098 z m -85.13601,-11.32309 q 2.93719,-5.27844 7.02372,-7.78995 4.08653,-2.51151 9.62037,-2.51151 7.4494,0 11.49336,5.23586 4.04396,5.1933 4.04396,14.81367 V 636.644 h -7.87508 v -28.52056 q 0,-6.85345 -2.42638,-10.17376 -2.42637,-3.3203 -7.40683,-3.3203 -6.08722,0 -9.62037,4.04396 -3.53314,4.04396 -3.53314,11.02512 V 636.644 h -7.87509 v -28.52056 q 0,-6.89602 -2.42637,-10.17376 -2.42638,-3.3203 -7.49197,-3.3203 -6.00209,0 -9.53524,4.08653 -3.53314,4.04396 -3.53314,10.98255 V 636.644 h -7.87508 v -47.67617 h 7.87508 v 7.40684 q 2.68178,-4.38451 6.42777,-6.47034 3.74598,-2.08583 8.89671,-2.08583 5.1933,0 8.81158,2.63922 3.66085,2.63921 5.40614,7.66224 z M 109.15932,575.1758 v 8.3859 q -4.89532,-2.34124 -9.237256,-3.49058 -4.341937,-1.14934 -8.385898,-1.14934 -7.023721,0 -10.854842,2.72436 -3.788553,2.72435 -3.788553,7.74738 0,4.21423 2.511512,6.3852 2.554081,2.1284 9.620371,3.44801 l 5.193297,1.0642 q 9.620369,1.83042 14.175149,6.47033 4.59734,4.59735 4.59734,12.34473 0,9.23725 -6.21493,14.00487 -6.17236,4.76762 -18.133968,4.76762 -4.512209,0 -9.620371,-1.02164 -5.065593,-1.02163 -10.514298,-3.02232 v -8.85415 q 5.235865,2.93719 10.25889,4.42707 5.023026,1.48988 9.875779,1.48988 7.364265,0 11.365658,-2.89462 4.00139,-2.89463 4.00139,-8.25819 0,-4.68249 -2.89462,-7.3217 -2.852058,-2.63922 -9.407532,-3.95883 l -5.235865,-1.02163 q -9.62037,-1.91556 -13.919739,-6.00209 -4.299369,-4.08653 -4.299369,-11.36566 0,-8.42846 5.916953,-13.28122 5.959521,-4.85275 16.388684,-4.85275 4.469641,0 9.109554,0.80879 4.639914,0.8088 9.492664,2.42638 z"
         inkscape:connector-curvature="0" />
    </g>
  </g>
</svg>
